<svg width="1280" height="800" viewBox="0 0 1280 800" fill="none" xmlns="http://www.w3.org/2000/svg">
<g clip-path="url(#clip0_2_5)">
<path d="M0 0V800H1280V0H0Z" fill="#012169"/>
<path d="M0 0L1280 800L0 0ZM1280 0L0 800Z" fill="black"/>
<path d="M1280 0L0 800M0 0L1280 800L0 0Z" stroke="white" stroke-width="120"/>
<path d="M0 0L1280 800L0 0ZM1280 0L0 800Z" fill="black"/>
<path d="M1280 0L0 800M0 0L1280 800L0 0Z" stroke="#C8102E" stroke-width="80"/>
<path d="M640 0V800V0ZM0 400H1280Z" fill="black"/>
<path d="M0 400H1280M640 0V800V0Z" stroke="white" stroke-width="200"/>
<path d="M640 0V800V0ZM0 400H1280Z" fill="black"/>
<path d="M0 400H1280M640 0V800V0Z" stroke="#C8102E" stroke-width="120"/>
</g>
<defs>
<clipPath id="clip0_2_5">
<rect width="1280" height="800" fill="white"/>
</clipPath>
</defs>
</svg>
